<svg id="SvgjsSvg1001" width="288" height="288" xmlns="http://www.w3.org/2000/svg" version="1.1" xmlns:xlink="http://www.w3.org/1999/xlink" xmlns:svgjs="http://svgjs.com/svgjs"><defs id="SvgjsDefs1002"></defs><g id="SvgjsG1008"><svg xmlns="http://www.w3.org/2000/svg" width="288" height="288" enable-background="new 0 0 437.699 437.699" viewBox="0 0 437.699 437.699"><path d="M372.578,63.101c-41.18-32.332-95.775-50.138-153.727-50.138c-57.952,0-112.547,17.806-153.728,50.138
		C23.127,96.073,0,140.162,0,187.244c0,47.688,24.536,93.246,67.589,126.027l-20.81,97.656c-0.893,4.186,0.629,8.518,3.94,11.227
		c2.079,1.701,4.645,2.582,7.237,2.582c1.538,0,3.087-0.311,4.548-0.943l144.063-62.539c4.104,0.18,8.223,0.271,12.282,0.271
		c57.952,0,112.545-17.807,153.727-50.139c41.996-32.973,65.123-77.061,65.123-124.144
		C437.701,140.162,414.574,96.073,372.578,63.101z M218.852,304.393c-15.709,0-28.49-12.78-28.49-28.489
		c0-15.71,12.781-28.491,28.49-28.491c15.708,0,28.49,12.781,28.49,28.491C247.342,291.612,234.561,304.393,218.852,304.393z
		 M240.721,215.57c-0.771,11.446-10.367,20.417-21.844,20.417c-0.499,0-1.002-0.016-1.505-0.051
		c-10.867-0.737-19.624-9.498-20.355-20.376l-6.931-102.056c-0.522-7.686,1.98-15.118,7.049-20.926
		c5.068-5.806,12.092-9.29,19.779-9.813c0.653-0.044,1.313-0.066,1.962-0.066c15.11,0,27.757,11.813,28.778,26.894
		C248.202,116.2,240.721,215.57,240.721,215.57z" fill="#e61818" class="color000 svgShape"></path></svg></g></svg>